<?xml version="1.0" encoding="UTF-8" standalone="no"?>
<svg
   xmlns:dc="http://purl.org/dc/elements/1.1/"
   xmlns:cc="http://creativecommons.org/ns#"
   xmlns:rdf="http://www.w3.org/1999/02/22-rdf-syntax-ns#"
   xmlns:svg="http://www.w3.org/2000/svg"
   xmlns="http://www.w3.org/2000/svg"
   xmlns:sodipodi="http://sodipodi.sourceforge.net/DTD/sodipodi-0.dtd"
   xmlns:inkscape="http://www.inkscape.org/namespaces/inkscape"
   version="1.1"
   id="svg833"
   xml:space="preserve"
   width="121.33333"
   height="182.66667"
   viewBox="0 0 121.33333 182.66667"
   sodipodi:docname="FH-Aachen-r.svg"
   inkscape:version="1.0.2-2 (e86c870879, 2021-01-15)"><metadata
     id="metadata839"><rdf:RDF><cc:Work
         rdf:about=""><dc:format>image/svg+xml</dc:format><dc:type
           rdf:resource="http://purl.org/dc/dcmitype/StillImage" /><dc:title></dc:title></cc:Work></rdf:RDF></metadata><defs
     id="defs837" /><sodipodi:namedview
     pagecolor="#ffffff"
     bordercolor="#666666"
     borderopacity="1"
     objecttolerance="10"
     gridtolerance="10"
     guidetolerance="10"
     inkscape:pageopacity="0"
     inkscape:pageshadow="2"
     inkscape:window-width="1920"
     inkscape:window-height="1017"
     id="namedview835"
     showgrid="false"
     inkscape:zoom="4.5273721"
     inkscape:cx="60.666664"
     inkscape:cy="109.00363"
     inkscape:window-x="1912"
     inkscape:window-y="-8"
     inkscape:window-maximized="1"
     inkscape:current-layer="g841" /><g
     id="g841"
     inkscape:groupmode="layer"
     inkscape:label="FHAAC_4C_BL-r"
     transform="matrix(1.3333333,0,0,-1.3333333,0,182.66667)"><g
       id="g843"
       transform="scale(0.1)"><path
         d="M 457.83751,452.188 V 1.36719 H 303.723 V 452.188 l -1.36,1.359 v 453.547 l 1.36,1.367 v 450.819 h 154.11451 l 0,-450.819 v -1.367 -453.547 -1.359"
         style="fill:#ffffff;fill-opacity:1;fill-rule:nonzero;stroke:none"
         id="path845"
         sodipodi:nodetypes="ccccccccccccc" /><path
         d="m 186.836,1.36719 h -36.934 v 2.55078 h 36.934 c 12.812,0 19.055,5.96484 19.055,18.22263 0,12.0508 -6.411,18.1602 -19.055,18.1602 h -36.934 v 2.5312 h 36.934 c 14.402,0 21.418,-6.7578 21.418,-20.6914 0,-13.99607 -7.016,-20.77341 -21.418,-20.77341 v 0"
         style="fill:#ffffff;fill-opacity:1;fill-rule:nonzero;stroke:none"
         id="path847" /><path
         d="M 207.141,61.8633 H 149.91 v 3.1055 l 44.629,29.5703 5.422,3.5273 c 0.5,0.332 0.684,1.0352 0.519,1.6094 -0.187,0.6052 -0.761,1.0542 -1.386,1.0542 l -6.379,-0.164 -42.805,-0.078 v 1.961 h 57.231 v -1.773 l -45.774,-30.6448 -5.429,-3.5273 c -0.5,-0.332 -0.684,-1.0156 -0.5,-1.5937 0.167,-0.5743 0.761,-1.0547 1.371,-1.0547 l 6.461,0.0781 h 43.871 v -2.0703"
         style="fill:#ffffff;fill-opacity:1;fill-rule:nonzero;stroke:none"
         id="path849" /><path
         d="M 207.141,122.844 H 149.91 v 2.547 h 57.231 v -2.547"
         style="fill:#ffffff;fill-opacity:1;fill-rule:nonzero;stroke:none"
         id="path851" /><path
         d="m 149.902,141.453 v 2.902 l 47.864,16.805 6.101,1.965 c 0.559,0.187 0.945,0.828 0.945,1.426 0,0.586 -0.371,1.219 -0.925,1.418 l -6.067,2 -47.918,16.789 v 2.605 l 57.239,-20.84 v -4.25 l -57.239,-20.82 v 0"
         style="fill:#ffffff;fill-opacity:1;fill-rule:nonzero;stroke:none"
         id="path853" /><path
         d="m 207.117,202.949 h -57.222 v 32.688 l 2.207,0.105 v -28.965 c 0,-0.742 0.625,-1.367 1.367,-1.367 h 21.343 c 0.747,0 1.372,0.625 1.372,1.367 v 24.953 h 1.777 v -24.953 c 0,-0.742 0.625,-1.367 1.363,-1.367 h 24.199 c 0.747,0 1.372,0.625 1.372,1.367 v 30.411 l 2.222,-0.126 v -34.113"
         style="fill:#ffffff;fill-opacity:1;fill-rule:nonzero;stroke:none"
         id="path855" /><path
         d="m 207.117,253.191 h -57.215 v 18.086 c 0,11.223 4.59,16.235 14.864,16.235 8.828,0 13.586,-3.789 14.492,-11.606 0.039,-0.457 0.332,-0.847 0.742,-1.051 0.188,-0.097 0.391,-0.148 0.605,-0.148 0.247,0 0.489,0.066 0.704,0.203 l 25.808,15.473 v -3.203 l -26.25,-14.973 c -0.406,-0.242 -0.679,-0.684 -0.679,-1.184 v -13.906 c 0,-0.738 0.624,-1.363 1.367,-1.363 h 25.562 z m -42.129,31.582 c -9.07,0 -13.125,-4.168 -13.125,-13.496 v -14.16 c 0,-0.738 0.625,-1.363 1.367,-1.363 h 24.004 c 0.746,0 1.36,0.625 1.36,1.363 v 13.664 c 0,9.68 -4.192,13.992 -13.606,13.992 v 0"
         style="fill:#ffffff;fill-opacity:1;fill-rule:nonzero;stroke:none"
         id="path857" /><path
         d="m 204.285,303.535 -2.078,0.41 c 2.598,4.524 3.816,9.375 3.816,15.098 0,10.019 -5.015,15.769 -13.757,15.769 -8.594,0 -11.282,-7.683 -13.875,-15.105 -2.817,-8.074 -5.481,-15.684 -14.922,-15.684 -9.231,0 -14.524,6.309 -14.524,17.278 0,5.015 0.91,9.754 2.625,13.777 l 2.043,-0.41 c -1.726,-4.57 -2.519,-8.66 -2.519,-13.145 0,-11.191 6.242,-15.183 12.07,-15.183 8.027,0 10.574,7.422 13.027,14.59 2.871,8.367 5.586,16.258 15.774,16.258 10.508,0 16.297,-6.446 16.297,-18.145 0,-5.676 -1.328,-10.879 -3.977,-15.508 v 0"
         style="fill:#ffffff;fill-opacity:1;fill-rule:nonzero;stroke:none"
         id="path859" /><path
         d="m 207.141,354.336 h -57.239 v 2.559 h 57.239 v -2.559"
         style="fill:#ffffff;fill-opacity:1;fill-rule:nonzero;stroke:none"
         id="path861" /><path
         d="m 152.285,371.199 -2.39,0.078 v 40.051 l 2.39,0.02 v -17.481 c 0,-0.742 0.613,-1.367 1.36,-1.367 h 53.484 v -2.539 h -53.484 c -0.747,0 -1.36,-0.613 -1.36,-1.356 v -17.406"
         style="fill:#ffffff;fill-opacity:1;fill-rule:nonzero;stroke:none"
         id="path863" /><path
         d="m 149.895,420.664 v 3.066 l 27.332,14.485 5.711,2.847 c 0.48,0.227 0.761,0.825 0.761,1.34 0,0.536 -0.301,1.114 -0.761,1.336 l -5.75,2.793 -27.293,14.414 v 2.832 l 36.953,-19.968 20.293,-0.149 v -2.664 H 187.48 l -37.585,-20.332 v 0"
         style="fill:#ffffff;fill-opacity:1;fill-rule:nonzero;stroke:none"
         id="path865" /><path
         d="m 178.516,500.43 c -21.563,0 -29.578,6.101 -29.578,22.55 0,16.422 8.015,22.528 29.578,22.528 21.699,0 29.754,-6.106 29.754,-22.528 0,-16.449 -8.055,-22.55 -29.754,-22.55 z m 0,42.375 c -20.118,0 -27.246,-5.2 -27.246,-19.825 0,-14.652 7.128,-19.843 27.246,-19.843 20.195,0 27.363,5.215 27.363,19.898 0,14.594 -7.168,19.77 -27.363,19.77 v 0"
         style="fill:#ffffff;fill-opacity:1;fill-rule:nonzero;stroke:none"
         id="path867" /><path
         d="m 207.141,562.98 h -57.246 v 32.657 l 2.39,0.086 v -28.848 c 0,-0.742 0.613,-1.367 1.36,-1.367 h 21.675 c 0.742,0 1.36,0.625 1.36,1.367 v 24.082 h 2.082 v -24.082 c 0,-0.742 0.613,-1.367 1.355,-1.367 h 27.024 v -2.528"
         style="fill:#ffffff;fill-opacity:1;fill-rule:nonzero;stroke:none"
         id="path869" /><path
         d="m 207.141,626.934 -57.246,21.757 v 4.356 l 57.246,21.754 v -2.989 l -14.946,-5.359 c -0.554,-0.183 -0.906,-0.699 -0.906,-1.277 v -28.867 c 0,-0.579 0.371,-1.094 0.906,-1.282 l 14.946,-5.332 z m -19.192,37.921 c -0.144,0 -0.304,-0.05 -0.449,-0.089 l -29.363,-10.469 -6.075,-1.953 c -0.558,-0.188 -0.949,-0.828 -0.949,-1.406 0,-0.594 0.364,-1.231 0.918,-1.418 l 6.121,-2.079 29.348,-10.632 c 0.145,-0.039 0.305,-0.09 0.449,-0.09 0.274,0 0.535,0.09 0.781,0.254 0.372,0.246 0.579,0.656 0.579,1.113 v 25.398 c 0,0.442 -0.207,0.871 -0.579,1.118 -0.222,0.164 -0.488,0.253 -0.781,0.253 v 0"
         style="fill:#ffffff;fill-opacity:1;fill-rule:nonzero;stroke:none"
         id="path871" /><path
         d="m 207.141,690.297 h -57.246 v 17.738 c 0,12.903 4.785,18.156 16.484,18.156 11.601,0 16.543,-5.421 16.543,-18.156 v -13.82 c 0,-0.742 0.625,-1.363 1.363,-1.363 h 22.856 z m -40.762,33.258 c -10.012,0 -14.484,-4.782 -14.484,-15.52 v -13.82 c 0,-0.742 0.617,-1.363 1.359,-1.363 h 26.453 c 0.742,0 1.355,0.621 1.355,1.363 v 13.82 c 0,10.883 -4.382,15.52 -14.683,15.52 v 0"
         style="fill:#ffffff;fill-opacity:1;fill-rule:nonzero;stroke:none"
         id="path873" /><path
         d="m 207.141,742.055 h -57.246 v 17.765 c 0,12.879 4.785,18.133 16.484,18.133 11.601,0 16.543,-5.418 16.543,-18.133 v -13.828 c 0,-0.742 0.625,-1.359 1.363,-1.359 h 22.856 z m -40.762,33.257 c -10.012,0 -14.484,-4.781 -14.484,-15.492 v -13.828 c 0,-0.742 0.617,-1.359 1.359,-1.359 h 26.453 c 0.742,0 1.355,0.617 1.355,1.359 v 13.828 c 0,10.86 -4.382,15.492 -14.683,15.492 v 0"
         style="fill:#ffffff;fill-opacity:1;fill-rule:nonzero;stroke:none"
         id="path875" /><path
         d="m 207.141,793.84 h -57.246 v 2.551 h 53.496 c 0.742,0 1.355,0.621 1.355,1.363 v 28.308 l 2.395,-0.101 V 793.84"
         style="fill:#ffffff;fill-opacity:1;fill-rule:nonzero;stroke:none"
         id="path877" /><path
         d="m 207.141,841.52 h -57.246 v 2.558 h 57.246 v -2.558"
         style="fill:#ffffff;fill-opacity:1;fill-rule:nonzero;stroke:none"
         id="path879" /><path
         d="m 207.141,864.656 h -57.246 v 32.684 l 2.222,0.125 v -28.973 c 0,-0.742 0.617,-1.359 1.36,-1.359 h 21.347 c 0.742,0 1.36,0.617 1.36,1.359 v 24.93 h 1.777 v -24.93 c 0,-0.742 0.613,-1.359 1.355,-1.359 h 24.207 c 0.747,0 1.372,0.617 1.372,1.359 v 30.395 l 2.246,-0.125 v -34.106"
         style="fill:#ffffff;fill-opacity:1;fill-rule:nonzero;stroke:none"
         id="path881" /><path
         d="m 207.141,914.918 h -57.246 v 18.211 c 0,17.168 7.949,23.844 28.367,23.844 20.508,0 28.879,-6.883 28.879,-23.743 z m -28.879,39.27 c -18.938,0 -25.977,-5.747 -25.977,-21.2 v -14.156 c 0,-0.742 0.613,-1.359 1.36,-1.359 h 49.824 c 0.742,0 1.355,0.617 1.355,1.359 v 14.238 c 0,15.207 -7.429,21.118 -26.562,21.118 v 0"
         style="fill:#ffffff;fill-opacity:1;fill-rule:nonzero;stroke:none"
         id="path883" /><path
         d="m 204.297,995.055 -2.078,0.39 c 2.586,4.575 3.804,9.415 3.804,15.105 0,10.02 -5.007,15.76 -13.765,15.76 -8.598,0 -11.274,-7.68 -13.867,-15.12 -2.825,-8.05 -5.5,-15.682 -14.914,-15.682 -9.239,0 -14.532,6.282 -14.532,17.262 0,5.05 0.91,9.79 2.617,13.81 l 2.059,-0.41 c -1.726,-4.55 -2.508,-8.65 -2.508,-13.13 0,-14.11 9.231,-15.204 12.051,-15.204 8.02,0 10.566,7.414 13.027,14.594 2.864,8.36 5.579,16.28 15.762,16.28 10.527,0 16.317,-6.45 16.317,-18.16 0,-5.69 -1.336,-10.902 -3.973,-15.495 v 0"
         style="fill:#ffffff;fill-opacity:1;fill-rule:nonzero;stroke:none"
         id="path885" /><path
         d="m 177.883,1042.18 c -20.285,0 -28.938,7.15 -28.938,23.88 0,4.64 1.133,9.56 2.332,12.53 l 2.121,-0.33 c -1.359,-3.61 -2.148,-7.93 -2.148,-11.95 0,-15.2 7.715,-21.41 26.633,-21.41 19.922,0 28.055,6.29 28.055,21.68 0,4.28 -0.821,8.28 -2.469,11.9 l 1.812,0.36 c 1.528,-3.18 2.989,-8 2.989,-12.92 0,-16.63 -9.09,-23.74 -30.387,-23.74 v 0"
         style="fill:#ffffff;fill-opacity:1;fill-rule:nonzero;stroke:none"
         id="path887" /><path
         d="m 207.141,1095.3 h -57.246 v 2.57 h 57.246 v -2.57"
         style="fill:#ffffff;fill-opacity:1;fill-rule:nonzero;stroke:none"
         id="path889" /><path
         d="m 207.141,1118.44 h -57.246 v 32.67 l 2.222,0.13 v -28.97 c 0,-0.74 0.617,-1.36 1.36,-1.36 h 21.347 c 0.742,0 1.36,0.62 1.36,1.36 v 24.95 h 1.777 v -24.95 c 0,-0.74 0.613,-1.36 1.355,-1.36 h 24.207 c 0.747,0 1.372,0.62 1.372,1.36 v 30.41 l 2.246,-0.12 v -34.12"
         style="fill:#ffffff;fill-opacity:1;fill-rule:nonzero;stroke:none"
         id="path891" /><path
         d="m 207.141,1167.66 h -57.246 v 3.11 l 44.625,29.57 5.441,3.53 c 0.519,0.33 0.703,1.03 0.519,1.6 -0.187,0.56 -0.746,1.03 -1.32,1.03 -0.019,0 -0.019,0 -0.039,0 l -6.387,-0.14 -42.839,-0.09 v 1.98 h 57.246 v -1.79 l -45.774,-30.64 -5.437,-3.52 c -0.508,-0.31 -0.676,-1.03 -0.508,-1.61 0.176,-0.58 0.762,-1.05 1.375,-1.05 l 6.465,0.08 h 43.879 v -2.06"
         style="fill:#ffffff;fill-opacity:1;fill-rule:nonzero;stroke:none"
         id="path893" /><path
         d="m 177.883,1225.1 c -20.285,0 -28.938,7.15 -28.938,23.92 0,4.57 1.133,9.56 2.332,12.49 l 2.102,-0.31 c -1.34,-3.59 -2.129,-7.91 -2.129,-11.95 0,-15.21 7.715,-21.41 26.633,-21.41 19.922,0 28.055,6.26 28.055,21.65 0,4.29 -0.821,8.29 -2.469,11.96 l 1.812,0.35 c 1.528,-3.19 2.989,-8 2.989,-12.95 0,-16.64 -9.09,-23.75 -30.387,-23.75 v 0"
         style="fill:#ffffff;fill-opacity:1;fill-rule:nonzero;stroke:none"
         id="path895" /><path
         d="m 207.141,1277.53 h -57.246 v 32.66 l 2.222,0.12 v -28.95 c 0,-0.74 0.617,-1.36 1.36,-1.36 h 21.347 c 0.742,0 1.36,0.62 1.36,1.36 v 24.95 h 1.777 v -24.95 c 0,-0.74 0.613,-1.36 1.355,-1.36 h 24.207 c 0.747,0 1.372,0.62 1.372,1.36 v 30.39 l 2.246,-0.12 v -34.1"
         style="fill:#ffffff;fill-opacity:1;fill-rule:nonzero;stroke:none"
         id="path897" /><path
         d="m 204.297,1325.61 -2.109,0.41 c 2.578,4.55 3.835,9.5 3.835,15.11 0,10.01 -5.007,15.74 -13.765,15.74 -8.598,0 -11.274,-7.69 -13.867,-15.1 -2.825,-8.06 -5.5,-15.66 -14.914,-15.66 -9.239,0 -14.532,6.28 -14.532,17.27 0,5.02 0.91,9.76 2.617,13.78 l 2.059,-0.41 c -1.726,-4.56 -2.508,-8.66 -2.508,-13.15 0,-11.19 6.223,-15.19 12.051,-15.19 8.02,0 10.566,7.42 13.027,14.59 2.864,8.37 5.579,16.28 15.762,16.28 10.527,0 16.317,-6.45 16.317,-18.15 0,-5.69 -1.336,-10.88 -3.973,-15.52 v 0"
         style="fill:#ffffff;fill-opacity:1;fill-rule:nonzero;stroke:none"
         id="path899" /><path
         d="M 116.395,1.36719 H 59.168 V 36.9648 l 7.4922,0.1641 V 11.0273 c 0,-0.7461 0.6171,-1.37105 1.3671,-1.37105 h 15.3399 c 0.7422,0 1.3672,0.62495 1.3672,1.37105 v 21.5625 l 6.9648,-0.0429 V 11.0273 c 0,-0.7461 0.625,-1.37105 1.3789,-1.37105 H 116.395 V 1.36719"
         style="fill:#ffffff;fill-opacity:1;fill-rule:nonzero;stroke:none"
         id="path901" /><path
         d="M 116.406,49.7461 H 59.1523 v 8.2812 h 22.711 c 0.7422,0 1.3672,0.625 1.3672,1.3672 v 24.3946 c 0,0.7421 -0.625,1.3671 -1.3672,1.3671 h -22.711 v 8.293 h 57.2537 v -8.293 H 92.0234 c -0.7539,0 -1.3672,-0.625 -1.3672,-1.3671 V 59.3945 c 0,-0.7422 0.6133,-1.3672 1.3672,-1.3672 h 24.3826 v -8.2812"
         style="fill:#ffffff;fill-opacity:1;fill-rule:nonzero;stroke:none"
         id="path903" /><path
         d="m 116.414,126.855 -57.246,20.391 v 11.289 l 57.246,20.52 v -9.446 l -11.902,-3.625 c -0.586,-0.183 -0.977,-0.703 -0.977,-1.296 v -24.004 c 0,-0.594 0.391,-1.114 0.977,-1.297 l 11.902,-3.684 z m -20.8671,36.321 c -0.1446,0 -0.2735,-0.024 -0.3985,-0.071 l -23.4375,-7.199 -6.1836,-1.676 c -0.5859,-0.148 -0.9961,-0.812 -1.0156,-1.41 0,-0.625 0.3906,-1.289 0.9649,-1.453 l 6.2343,-1.836 23.4375,-7.265 c 0.125,-0.047 0.2539,-0.071 0.3711,-0.071 0.2891,0 0.5821,0.11 0.8282,0.278 0.3515,0.242 0.5585,0.664 0.5585,1.089 v 18.247 c 0,0.425 -0.207,0.828 -0.5585,1.089 -0.2461,0.168 -0.5157,0.278 -0.8008,0.278 v 0"
         style="fill:#ffffff;fill-opacity:1;fill-rule:nonzero;stroke:none"
         id="path905" /><path
         d="m 116.406,186.465 -57.2458,20.383 v 11.297 l 57.2458,20.515 v -9.449 l -11.902,-3.625 c -0.578,-0.188 -0.969,-0.703 -0.969,-1.301 v -24.004 c 0,-0.593 0.391,-1.109 0.969,-1.297 l 11.902,-3.664 z m -20.8591,36.308 c -0.1446,0 -0.2617,-0.019 -0.3907,-0.058 l -23.4374,-7.207 -6.1915,-1.668 c -0.5742,-0.149 -0.9961,-0.813 -1.0156,-1.406 0,-0.625 0.3985,-1.289 0.9766,-1.45 l 6.2305,-1.843 23.4374,-7.266 c 0.129,-0.039 0.2461,-0.059 0.3711,-0.059 0.293,0 0.5743,0.11 0.8282,0.274 0.3554,0.246 0.5586,0.652 0.5586,1.094 v 18.222 c 0,0.442 -0.2032,0.828 -0.5586,1.106 -0.2539,0.152 -0.5157,0.261 -0.8086,0.261 v 0"
         style="fill:#ffffff;fill-opacity:1;fill-rule:nonzero;stroke:none"
         id="path907" /><path
         d="m 87.3047,246.348 c -19.9102,0 -29.1914,8.164 -29.1914,25.714 0,4.051 0.8711,8.993 2.1523,12.442 l 6.961,-0.859 c -1.0743,-3.403 -1.6719,-7.329 -1.6719,-11.028 0,-12.695 5.9101,-17.422 21.8281,-17.422 16.6722,0 22.8712,4.793 22.8712,17.676 0,3.777 -0.684,7.461 -2.012,10.977 l 6.477,0.886 c 1.734,-3.953 2.808,-8.953 2.808,-13.32 0,-17.344 -9.324,-25.066 -30.2223,-25.066 v 0"
         style="fill:#ffffff;fill-opacity:1;fill-rule:nonzero;stroke:none"
         id="path909" /><path
         d="M 116.414,297.781 H 59.1602 v 8.281 h 22.6875 c 0.7421,0 1.3671,0.626 1.3671,1.372 v 24.402 c 0,0.742 -0.625,1.355 -1.3671,1.355 H 59.1602 v 8.313 h 57.2538 v -8.313 H 92.0117 c -0.7422,0 -1.3555,-0.613 -1.3555,-1.355 v -24.402 c 0,-0.746 0.6133,-1.372 1.3555,-1.372 h 24.4023 v -8.281"
         style="fill:#ffffff;fill-opacity:1;fill-rule:nonzero;stroke:none"
         id="path911" /><path
         d="M 116.406,357.805 H 59.1602 v 35.672 l 7.2656,0.128 v -26.144 c 0,-0.742 0.6133,-1.356 1.3672,-1.356 h 14.4726 c 0.7422,0 1.3555,0.614 1.3555,1.356 v 21.992 h 6.3008 v -21.992 c 0,-0.742 0.6133,-1.356 1.3593,-1.356 h 16.6408 c 0.738,0 1.363,0.614 1.363,1.356 v 27.383 l 7.121,-0.164 v -36.875"
         style="fill:#ffffff;fill-opacity:1;fill-rule:nonzero;stroke:none"
         id="path913" /><path
         d="M 116.406,408.047 H 59.1523 v 7.527 l 34.4219,23.508 5.3594,3.563 c 0.5,0.351 0.6836,1.054 0.5,1.632 -0.1875,0.559 -0.7227,1.035 -1.3281,1.035 -0.0196,0 -0.0196,0 -0.0391,0 l -6.4141,-0.167 h -32.5 v 7.035 h 57.2537 v -5.696 l -35.9568,-25.168 -5.4101,-3.574 c -0.5079,-0.332 -0.6758,-1.023 -0.5079,-1.609 0.1876,-0.574 0.7813,-1.043 1.375,-1.043 l 6.4571,0.078 h 34.0427 v -7.121"
         style="fill:#ffffff;fill-opacity:1;fill-rule:nonzero;stroke:none"
         id="path915" /><path
         d="M 302.363,453.547 H 457.83751 V 0 H 302.363 v 453.547"
         style="fill:#000000;fill-opacity:1;fill-rule:nonzero;stroke:none"
         id="path917"
         sodipodi:nodetypes="ccccc" /><path
         d="m 303.723,1.35547 h 154.11451 l 0,450.832 H 303.723 Z"
         style="fill:#1a1b21;fill-opacity:1;fill-rule:nonzero;stroke:none"
         id="path919"
         sodipodi:nodetypes="ccccc" /><path
         d="M 302.363,907.102 H 457.83751 V 453.547 H 302.363 v 453.555"
         style="fill:#ffffff;fill-opacity:1;fill-rule:nonzero;stroke:none"
         id="path921"
         sodipodi:nodetypes="ccccc" /><path
         d="m 302.363,1360.63 h 155.47451 l 0,-453.528 H 302.363 v 453.528"
         style="opacity:0.995;fill:#40beaa;fill-opacity:1;fill-rule:nonzero;stroke:none"
         id="path923"
         sodipodi:nodetypes="ccccc" /><path
         d="m 186.836,44.2109 c 16.074,0 22.793,-8.1562 22.793,-22.0625 C 209.629,8.15625 202.91,0 186.836,0 h -38.301 v 5.27344 h 38.301 c 12.305,0 17.676,5.59376 17.676,16.87496 0,11.1914 -5.528,16.7852 -17.676,16.7852 h -38.301 v 5.2773 h 38.301"
         style="fill:#000000;fill-opacity:1;fill-rule:nonzero;stroke:none"
         id="path925" /><path
         d="m 208.496,99.9219 -46.367,-31.0235 -5.449,-3.5273 0.097,-0.1563 6.465,0.086 h 45.254 v -4.793 h -59.961 v 5.1953 l 45.254,29.9805 5.43,3.5273 -0.078,0.1524 -6.387,-0.1524 -44.219,-0.0898 v 4.7069 h 59.961 v -3.9061"
         style="fill:#000000;fill-opacity:1;fill-rule:nonzero;stroke:none"
         id="path927" /><path
         d="m 148.535,121.484 v 5.274 h 59.961 v -5.274 h -59.961"
         style="fill:#000000;fill-opacity:1;fill-rule:nonzero;stroke:none"
         id="path929" /><path
         d="m 148.535,189.309 59.961,-21.829 v -6.152 l -59.961,-21.824 v 5.828 l 48.77,17.109 6.152,1.993 v 0.254 l -6.074,1.992 -48.848,17.109 v 5.52"
         style="fill:#000000;fill-opacity:1;fill-rule:nonzero;stroke:none"
         id="path931" /><path
         d="m 203.535,238.613 4.961,-0.254 v -36.777 h -59.961 v 35.352 l 4.942,0.222 v -30.379 h 21.347 v 26.309 h 4.492 v -26.309 h 24.219 v 31.836"
         style="fill:#000000;fill-opacity:1;fill-rule:nonzero;stroke:none"
         id="path933" /><path
         d="m 180.605,276.074 27.891,16.699 v -6.386 l -26.953,-15.352 v -13.918 h 26.953 v -5.281 h -59.961 v 19.434 c 0,12.082 5.274,17.597 16.231,17.597 9.746,0 14.863,-4.492 15.839,-12.793 z m -27.363,-4.804 v -14.153 h 23.985 v 13.664 c 0,8.731 -3.516,12.637 -12.227,12.637 -8.398,0 -11.758,-3.75 -11.758,-12.148"
         style="fill:#000000;fill-opacity:1;fill-rule:nonzero;stroke:none"
         id="path935" /><path
         d="m 209.629,319.043 c 0,-6.875 -1.856,-12.461 -4.649,-17.031 l -4.96,0.957 c 3.046,4.636 4.648,9.758 4.648,16.074 0,9.512 -4.648,14.395 -12.402,14.395 -16.075,0 -9.024,-30.782 -28.789,-30.782 -9.024,0 -15.899,5.762 -15.899,18.633 0,5.828 1.192,11.113 3.184,15.344 l 4.726,-0.949 c -1.914,-4.571 -3.027,-8.965 -3.027,-14.161 0,-9.921 5.019,-13.828 10.703,-13.828 15.274,0 8.066,30.86 28.789,30.86 10.957,0 17.676,-6.719 17.676,-19.512"
         style="fill:#000000;fill-opacity:1;fill-rule:nonzero;stroke:none"
         id="path937" /><path
         d="m 148.535,352.98 v 5.282 h 59.961 v -5.282 h -59.961"
         style="fill:#000000;fill-opacity:1;fill-rule:nonzero;stroke:none"
         id="path939" /><path
         d="m 153.652,393.867 h 54.844 v -5.262 h -54.844 v -18.8 l -5.117,0.156 v 42.707 l 5.117,0.066 v -18.867"
         style="fill:#000000;fill-opacity:1;fill-rule:nonzero;stroke:none"
         id="path941" /><path
         d="m 148.535,424.531 28.047,14.871 5.762,2.883 v 0.235 l -5.762,2.8 -28.047,14.797 v 5.918 L 187.48,445 h 21.016 v -5.352 H 187.48 l -38.945,-21.269 v 6.152"
         style="fill:#000000;fill-opacity:1;fill-rule:nonzero;stroke:none"
         id="path943" /><path
         d="m 209.629,522.969 c 0,-17.266 -8.887,-23.907 -31.113,-23.907 -22.227,0 -30.938,6.563 -30.938,23.907 0,17.441 8.711,23.906 30.938,23.906 22.304,0 31.113,-6.465 31.113,-23.906 z m -57.012,0 c 0,-13.184 5.664,-18.465 25.899,-18.465 20.156,0 25.996,5.281 25.996,18.543 0,13.191 -5.84,18.398 -25.996,18.398 -20.235,0 -25.899,-5.207 -25.899,-18.476"
         style="fill:#000000;fill-opacity:1;fill-rule:nonzero;stroke:none"
         id="path945" /><path
         d="m 153.652,566.875 h 21.66 v 25.437 h 4.805 v -25.437 h 28.379 v -5.266 h -59.961 v 35.344 l 5.117,0.156 v -30.234"
         style="fill:#000000;fill-opacity:1;fill-rule:nonzero;stroke:none"
         id="path947" /><path
         d="m 192.656,665.176 v -28.86 l 15.84,-5.671 v -5.684 l -59.961,22.793 v 6.23 l 59.961,22.797 v -5.914 z m -34.062,-16.465 29.355,-10.637 v 25.422 l -29.355,-10.469 -6.133,-1.992 v -0.242 l 6.133,-2.082"
         style="fill:#000000;fill-opacity:1;fill-rule:nonzero;stroke:none"
         id="path949" /><path
         d="m 184.277,708.043 v -13.84 h 24.219 v -5.273 h -59.961 v 19.113 c 0,13.59 5.274,19.508 17.832,19.508 12.071,0 17.91,-5.766 17.91,-19.508 z m -31.035,0 v -13.84 h 26.465 v 13.84 c 0,9.355 -3.184,14.152 -13.34,14.152 -9.59,0 -13.125,-4.562 -13.125,-14.152"
         style="fill:#000000;fill-opacity:1;fill-rule:nonzero;stroke:none"
         id="path951" /><path
         d="m 184.277,759.812 v -13.828 h 24.219 v -5.293 h -59.961 v 19.121 c 0,13.594 5.274,19.497 17.832,19.497 12.071,0 17.91,-5.747 17.91,-19.497 z m -31.035,0 v -13.828 h 26.465 v 13.828 c 0,9.36 -3.184,14.141 -13.34,14.141 -9.59,0 -13.125,-4.551 -13.125,-14.141"
         style="fill:#000000;fill-opacity:1;fill-rule:nonzero;stroke:none"
         id="path953" /><path
         d="m 203.379,827.488 5.117,-0.23 v -34.785 h -59.961 v 5.269 h 54.844 v 29.746"
         style="fill:#000000;fill-opacity:1;fill-rule:nonzero;stroke:none"
         id="path955" /><path
         d="m 148.535,840.168 v 5.27 h 59.961 v -5.27 h -59.961"
         style="fill:#000000;fill-opacity:1;fill-rule:nonzero;stroke:none"
         id="path957" /><path
         d="m 203.535,900.32 4.961,-0.254 v -36.773 h -59.961 v 35.352 l 4.942,0.234 v -30.395 h 21.347 v 26.313 h 4.492 v -26.313 h 24.219 v 31.836"
         style="fill:#000000;fill-opacity:1;fill-rule:nonzero;stroke:none"
         id="path959" /><path
         d="m 208.496,933.23 v -19.668 h -59.961 v 19.575 c 0,17.675 8.477,25.191 29.727,25.191 21.914,0 30.234,-8.062 30.234,-25.098 z m -54.844,-0.25 v -14.14 h 49.805 v 14.234 c 0,13.188 -5.352,19.746 -25.195,19.746 -18.926,0 -24.61,-5.933 -24.61,-19.84"
         style="fill:#000000;fill-opacity:1;fill-rule:nonzero;stroke:none"
         id="path961" /><path
         d="m 209.629,1010.56 c 0,-6.88 -1.856,-12.486 -4.649,-17.037 l -4.96,0.957 c 3.046,4.629 4.648,9.75 4.648,16.08 0,9.51 -4.648,14.39 -12.402,14.39 -16.075,0 -9.024,-30.802 -28.789,-30.802 -9.024,0 -15.899,5.762 -15.899,18.632 0,5.84 1.192,11.11 3.184,15.36 l 4.726,-0.96 c -1.914,-4.55 -3.027,-8.95 -3.027,-14.14 0,-9.93 5.019,-13.852 10.703,-13.852 15.274,0 8.066,30.882 28.789,30.882 10.957,0 17.676,-6.72 17.676,-19.51"
         style="fill:#000000;fill-opacity:1;fill-rule:nonzero;stroke:none"
         id="path963" /><path
         d="m 155.312,1079.35 c -1.503,-3.29 -2.695,-8.07 -2.695,-13.03 0,-13.68 6.231,-20.06 25.254,-20.06 20.313,0 26.719,6.47 26.719,20.31 0,5.02 -1.211,9.34 -3.125,12.93 l 4.551,0.88 c 1.933,-3.59 3.613,-9.1 3.613,-14.47 0,-17.43 -9.688,-25.1 -31.758,-25.1 -21.016,0 -30.293,7.85 -30.293,25.25 0,5.06 1.348,10.88 2.871,14.01 l 4.863,-0.72"
         style="fill:#000000;fill-opacity:1;fill-rule:nonzero;stroke:none"
         id="path965" /><path
         d="m 148.535,1093.94 v 5.29 h 59.961 v -5.29 h -59.961"
         style="fill:#000000;fill-opacity:1;fill-rule:nonzero;stroke:none"
         id="path967" /><path
         d="m 203.535,1154.11 4.961,-0.25 v -36.78 h -59.961 v 35.33 l 4.942,0.26 v -30.4 h 21.347 v 26.32 h 4.492 v -26.32 h 24.219 v 31.84"
         style="fill:#000000;fill-opacity:1;fill-rule:nonzero;stroke:none"
         id="path969" /><path
         d="m 208.496,1205.71 -46.367,-31.01 -5.449,-3.54 0.097,-0.15 6.465,0.08 h 45.254 v -4.79 h -59.961 v 5.19 l 45.254,29.99 5.43,3.51 -0.078,0.15 -6.387,-0.15 -44.219,-0.08 v 4.71 h 59.961 v -3.91"
         style="fill:#000000;fill-opacity:1;fill-rule:nonzero;stroke:none"
         id="path971" /><path
         d="m 155.312,1262.3 c -1.503,-3.28 -2.695,-8.09 -2.695,-13.05 0,-13.68 6.231,-20.06 25.254,-20.06 20.313,0 26.719,6.46 26.719,20.31 0,5.02 -1.211,9.34 -3.125,12.95 l 4.551,0.86 c 1.933,-3.59 3.613,-9.1 3.613,-14.45 0,-17.44 -9.688,-25.12 -31.758,-25.12 -21.016,0 -30.293,7.85 -30.293,25.28 0,5.03 1.348,10.85 2.871,13.98 l 4.863,-0.7"
         style="fill:#000000;fill-opacity:1;fill-rule:nonzero;stroke:none"
         id="path973" /><path
         d="m 203.535,1313.18 4.961,-0.24 v -36.78 h -59.961 v 35.33 l 4.942,0.24 v -30.37 h 21.347 v 26.31 h 4.492 v -26.31 h 24.219 v 31.82"
         style="fill:#000000;fill-opacity:1;fill-rule:nonzero;stroke:none"
         id="path975" /><path
         d="m 209.629,1341.12 c 0,-6.87 -1.856,-12.46 -4.649,-17.03 l -4.96,0.96 c 3.046,4.65 4.648,9.76 4.648,16.07 0,9.52 -4.648,14.4 -12.402,14.4 -16.075,0 -9.024,-30.79 -28.789,-30.79 -9.024,0 -15.899,5.77 -15.899,18.64 0,5.84 1.192,11.11 3.184,15.35 l 4.726,-0.95 c -1.914,-4.58 -3.027,-8.97 -3.027,-14.16 0,-9.93 5.019,-13.84 10.703,-13.84 15.274,0 8.066,30.87 28.789,30.87 10.957,0 17.676,-6.72 17.676,-19.52"
         style="fill:#000000;fill-opacity:1;fill-rule:nonzero;stroke:none"
         id="path977" /><path
         d="m 68.0273,11.0273 h 15.3516 v 22.9454 l 9.6875,-0.0743 V 11.0273 H 117.773 V 0 h -59.98 v 38.2891 l 10.2343,0.2461 V 11.0273"
         style="fill:#000000;fill-opacity:1;fill-rule:nonzero;stroke:none"
         id="path979" /><path
         d="M 117.773,83.7969 H 92.0117 V 59.3945 H 117.773 V 48.3789 H 57.793 V 59.3945 H 81.8555 V 83.7969 H 57.793 v 11.0273 h 59.98 V 83.7969"
         style="fill:#000000;fill-opacity:1;fill-rule:nonzero;stroke:none"
         id="path981" /><path
         d="m 104.902,164.68 v -23.996 l 12.871,-3.985 v -11.758 l -59.98,21.348 v 13.191 l 59.98,21.516 v -12.402 z m -32.7926,-13.84 23.4375,-7.266 v 18.223 l -23.4375,-7.188 -6.2305,-1.679 v -0.254 l 6.2305,-1.836"
         style="fill:#000000;fill-opacity:1;fill-rule:nonzero;stroke:none"
         id="path983" /><path
         d="m 104.902,224.285 v -23.992 l 12.871,-3.984 v -11.758 l -59.98,21.347 v 13.196 l 59.98,21.511 v -12.402 z m -32.7926,-13.836 23.4375,-7.265 v 18.222 l -23.4375,-7.187 -6.2305,-1.68 v -0.254 l 6.2305,-1.836"
         style="fill:#000000;fill-opacity:1;fill-rule:nonzero;stroke:none"
         id="path985" /><path
         d="m 69.0625,284.785 c -1.1914,-3.125 -2.1484,-7.519 -2.1484,-12.156 0,-11.672 4.9414,-16.067 20.4687,-16.067 16.4652,0 21.5042,4.551 21.5042,16.309 0,4.629 -1.035,8.633 -2.559,12.07 l 9.199,1.282 c 1.914,-3.918 3.36,-9.602 3.36,-14.797 0,-17.988 -10,-26.453 -31.5823,-26.453 -20.3125,0 -30.5469,8.386 -30.5469,27.097 0,4.883 1.1914,10.559 2.6367,13.907 l 9.668,-1.192"
         style="fill:#000000;fill-opacity:1;fill-rule:nonzero;stroke:none"
         id="path987" /><path
         d="M 117.773,331.836 H 92.0117 v -24.395 h 25.7613 v -11.015 h -59.98 v 11.015 h 24.0625 v 24.395 H 57.793 v 11.035 h 59.98 v -11.035"
         style="fill:#000000;fill-opacity:1;fill-rule:nonzero;stroke:none"
         id="path989" /><path
         d="m 107.93,396.25 9.843,-0.242 v -39.563 h -59.98 v 38.379 l 10,0.156 v -27.519 h 14.4726 v 23.359 h 9.0235 V 367.461 H 107.93 v 28.789"
         style="fill:#000000;fill-opacity:1;fill-rule:nonzero;stroke:none"
         id="path991" /><path
         d="m 117.773,445.781 -36.5425,-25.586 -5.4493,-3.593 0.0977,-0.157 6.4649,0.078 h 35.4292 v -9.835 h -59.98 v 9.601 l 35.0195,23.906 5.3516,3.594 -0.0586,0.156 -6.4063,-0.156 H 57.793 v 9.746 h 59.98 v -7.754"
         style="fill:#000000;fill-opacity:1;fill-rule:nonzero;stroke:none"
         id="path993" /></g></g></svg>
